<svg xmlns="http://www.w3.org/2000/svg" width="1018" height="190" viewBox="0 0 1018 190"><defs><mask id="c23jb" width="2" height="2" x="-1" y="-1"><path fill="#fff" d="M5 5h1002v174H5z"/><path d="M5 10c0-2.5 2.5-5 5-5h992c2.5 0 5 2.5 5 5v164c0 2.5-2.5 5-5 5H10c-2.5 0-5-2.5-5-5z"/></mask><filter id="c23ja" width="1045" height="217" x="-15" y="-15" filterUnits="userSpaceOnUse"><feOffset dx="3" dy="3" in="SourceGraphic" result="FeOffset1349Out"/><feGaussianBlur in="FeOffset1349Out" result="FeGaussianBlur1350Out" stdDeviation="4 4"/></filter></defs><g><g><g filter="url(#c23ja)"><path fill="none" d="M5 10c0-2.5 2.5-5 5-5h992c2.5 0 5 2.5 5 5v164c0 2.5-2.5 5-5 5H10c-2.5 0-5-2.5-5-5z" mask="url(&quot;#c23jb&quot;)"/><path fill-opacity=".16" d="M5 10c0-2.5 2.5-5 5-5h992c2.5 0 5 2.5 5 5v164c0 2.5-2.5 5-5 5H10c-2.5 0-5-2.5-5-5z"/></g><path fill="#f7f7f7" d="M5 10c0-2.5 2.5-5 5-5h992c2.5 0 5 2.5 5 5v164c0 2.5-2.5 5-5 5H10c-2.5 0-5-2.5-5-5z"/></g></g></svg>