<svg xmlns="http://www.w3.org/2000/svg" width="560" height="86" viewBox="0 0 560 86"><defs><mask id="l3qfb" width="2" height="2" x="-1" y="-1"><path fill="#fff" d="M4 2h551v76H4z"/><path d="M17 78a5 5 0 0 1-5-5V46.816l-7.824-7.824L12 32.132V7a5 5 0 0 1 5-5h533a5 5 0 0 1 5 5v66a5 5 0 0 1-5 5z"/></mask><filter id="l3qfa" width="583" height="111" x="-12" y="-14" filterUnits="userSpaceOnUse"><feOffset dy="3" in="SourceGraphic" result="FeOffset1329Out"/><feGaussianBlur in="FeOffset1329Out" result="FeGaussianBlur1330Out" stdDeviation="2.4 2.4"/></filter></defs><g><g><g filter="url(#l3qfa)"><path fill="none" d="M17 78a5 5 0 0 1-5-5V46.816l-7.824-7.824L12 32.132V7a5 5 0 0 1 5-5h533a5 5 0 0 1 5 5v66a5 5 0 0 1-5 5z" mask="url(&quot;#l3qfb&quot;)"/><path fill-opacity=".16" d="M17 78a5 5 0 0 1-5-5V46.816l-7.824-7.824L12 32.132V7a5 5 0 0 1 5-5h533a5 5 0 0 1 5 5v66a5 5 0 0 1-5 5z"/></g><path fill="#fff" d="M17 78a5 5 0 0 1-5-5V46.816l-7.824-7.824L12 32.132V7a5 5 0 0 1 5-5h533a5 5 0 0 1 5 5v66a5 5 0 0 1-5 5z"/></g></g></svg>