<svg xmlns="http://www.w3.org/2000/svg" width="20" height="11" viewBox="0 0 20 11"><g><g><path fill="#041e50" d="M20.099 6.338v-.014c0-.038-.005-.077-.005-.12-.029-.946-.09-3.16-2.166-3.867l-.047-.014C15.725 1.773 13.93.53 13.913.515a.645.645 0 1 0-.741 1.057c.081.057 1.984 1.382 4.364 1.993 1.114.397 1.239 1.588 1.272 2.678 0 .043 0 .08.005.12.005.43-.024 1.094-.1 1.476-.775.44-3.81 1.96-8.429 1.96-4.599 0-7.653-1.525-8.433-1.965-.076-.382-.11-1.047-.1-1.477 0-.038.005-.076.005-.12.033-1.09.158-2.28 1.271-2.676 2.381-.612 4.284-1.941 4.365-1.994a.645.645 0 1 0-.74-1.056c-.02.014-1.803 1.257-3.969 1.807a.59.59 0 0 0-.048.014C.561 3.044.5 5.258.47 6.2c0 .043 0 .08-.005.119v.014C.46 6.582.455 7.858.71 8.5c.048.124.134.23.248.301.144.096 3.581 2.285 9.332 2.285 5.751 0 9.188-2.194 9.332-2.285a.64.64 0 0 0 .248-.301c.24-.636.235-1.912.23-2.16z"/></g></g></svg>