<svg xmlns="http://www.w3.org/2000/svg" width="11" height="13" viewBox="0 0 11 13"><g><g><path fill="#041e50" d="M1.608 5.13c0-.015.005-.03.005-.039.158-3.427 2.591-3.795 3.633-3.795h.057c1.291.028 3.485.554 3.634 3.795 0 .015 0 .029.004.039.005.033.34 3.284-1.18 4.995-.603.679-1.406 1.014-2.462 1.023H5.25c-1.052-.01-1.86-.344-2.457-1.023-1.516-1.702-1.19-4.967-1.186-4.995zm3.667 7.309h.076c1.401-.024 2.534-.516 3.37-1.458 1.841-2.075 1.535-5.632 1.502-5.971-.12-2.548-1.325-3.767-2.319-4.336C7.164.25 6.298.02 5.332 0H5.25C4.72 0 3.679.086 2.68.655 1.675 1.224.451 2.443.332 5.01c-.034.34-.34 3.896 1.5 5.97.833.943 1.966 1.435 3.366 1.459h.077z"/></g></g></svg>