<svg xmlns="http://www.w3.org/2000/svg" width="10" height="10" viewBox="0 0 10 10"><g><g><path fill="#fff" d="M4.657 6.918a2.271 2.271 0 0 1-2.269-2.269 2.271 2.271 0 0 1 2.269-2.268 2.271 2.271 0 0 1 2.268 2.268 2.271 2.271 0 0 1-2.268 2.269zm0-6.187A3.923 3.923 0 0 0 .739 4.65a3.923 3.923 0 0 0 3.918 3.918A3.923 3.923 0 0 0 8.575 4.65 3.923 3.923 0 0 0 4.657.73z"/><path fill="none" stroke="#041e50" stroke-miterlimit="20" stroke-width=".3" d="M4.657 6.918a2.271 2.271 0 0 1-2.269-2.269 2.271 2.271 0 0 1 2.269-2.268 2.271 2.271 0 0 1 2.268 2.268 2.271 2.271 0 0 1-2.268 2.269zm0-6.187A3.923 3.923 0 0 0 .739 4.65a3.923 3.923 0 0 0 3.918 3.918A3.923 3.923 0 0 0 8.575 4.65 3.923 3.923 0 0 0 4.657.73z"/></g></g></svg>