<svg xmlns="http://www.w3.org/2000/svg" width="133" height="52" viewBox="0 0 133 52"><g><g><g><path fill="#b2b2b2" d="M125.497 10.878c-8.34-1.695-15.612-2.078-21.327-1.34-5.714.739-7.3 4.485-7.3 9.025 0 5.113.848 9.926 13.206 9.598a49.589 49.589 0 0 0 8.257-.93v-2.844h-6.945v-6.563h15.995v16.08c-1.558.656-9.87 2.734-17.307 2.734a66.178 66.178 0 0 1-10.308-.738c-2.843-.465-5.222-1.395-7.081-2.707a12.218 12.218 0 0 1-4.183-5.497c-.93-2.324-1.395-5.332-1.395-9.024 0-3.692.465-6.7 1.395-9.079a12.167 12.167 0 0 1 4.21-5.579c1.887-1.367 4.266-2.297 7.109-2.79 1.531-.272 6.535-.874 12.386-.737 4.922.19 9.822.767 14.655 1.723l-1.367 8.668M16.432 1.362h12.112l16.678 34.647H34.887l-2.898-6.125H13.124l-2.734 6.125H0zm.192 21.056h11.893L22.474 9.402zM47.957 1.362h10.58v12.743h1.122L73 1.362H87.41L68.709 18.316l20.888 17.72H74.915L59.659 22.72h-1.121v13.318H47.956z"/></g><g><path fill="#b2b2b2" d="M60.643 40.768v4.43h-5.277v-4.43h-2.132v9.981h2.132V46.1h5.277v3.583c.003.19.05.377.137.547.08.135.193.247.328.328.134.082.282.138.437.164.136.022.273.032.41.027h.82v-9.981z"/></g><g><path fill="#b2b2b2" d="M102.338 50.722V40.74h-2.078l-4.183 7.384-4.265-7.384h-2.105v9.982H90.8v-7.74l4.484 7.74h.547l4.375-7.685v6.59c.003.191.05.378.136.548.08.135.193.248.328.328.134.083.283.138.438.164a2.1 2.1 0 0 0 .41.027z"/></g><g><path fill="#b2b2b2" d="M115.735 50.722l-5.331-10.2h-.629l-5.468 10.2h1.258l1.695-3.172h3.882l-.547-1.012h-2.789l1.805-3.364 3.527 6.755c.102.252.285.464.52.601.238.143.515.21.792.192z"/></g><g><path fill="#b2b2b2" d="M126.836 40.768a.467.467 0 0 0-.191.027.313.313 0 0 0-.219.082.517.517 0 0 0-.246.438v6.426l-7.109-6.973h-1.367v9.98h1.258v-7.52l7.218 7.275c.3.273.71.246 1.093.246h.137v-9.981z"/></g><g><path fill="#b2b2b2" d="M70.869 40.55h-.63l-5.468 10.2h1.258l4.047-7.548 1.722 3.336h-2.816l-.547 1.012h3.91l1.23 2.379c.103.252.285.464.52.601.239.143.515.21.793.192H76.2z"/></g><g><path fill="#b2b2b2" d="M80.329 41.616h1.421a2.5 2.5 0 0 1 1.094.19 1.876 1.876 0 0 1 1.176 1.669c0 .738-.465 1.203-1.094 1.586s-1.613.356-1.613.356h-.984v-3.774zm4.265 8.313s.437.547.82.656c.237.085.486.131.738.137h1.641l-4.074-4.758c2.023-.547 2.597-1.614 2.597-2.544 0-.93-.437-1.64-1.503-2.16-1.067-.52-2.68-.492-2.68-.492h-3.91v9.981h2.133v-4.567h1.094l3.144 3.747"/></g><g><path fill="#b2b2b2" d="M45.113 48.37c.356-.41.656-.574 1.04-.574.6 0 1.038.492 1.038 1.176v.054a1.284 1.284 0 0 1-1.34 1.23 2.34 2.34 0 0 1-.738-.136zm-.328 1.969c.338.14.7.215 1.066.219 1.012 0 1.668-.63 1.668-1.614 0-.847-.547-1.422-1.34-1.422a1.427 1.427 0 0 0-1.066.465v-1.914h-.328z"/></g><g><path fill="#b2b2b2" d="M48.476 52.007h-.328l1.039-2.078-1.258-2.325h.328l1.094 2.024 1.039-2.024h.328z"/></g><g><path fill="#b2b2b2" d="M130.227 5.026h-.356v-.71h.3c.16-.003.317.025.466.081a.44.44 0 0 1 .136.3.295.295 0 0 1-.191.302 1.59 1.59 0 0 1-.355.054zm1.066 1.258l-.027-.082c-.028-.027-.028-.055-.028-.11v-.328a.578.578 0 0 0-.137-.355.44.44 0 0 0-.246-.192l.164-.081a.46.46 0 0 0 .247-.465.59.59 0 0 0-.356-.602 2.321 2.321 0 0 0-.629-.082h-.82v2.297h.465v-.875h.273c.14 0 .28.028.41.082.137.055.192.219.192.465v.191l.027.11v.027zm-.985-2.844c.455-.025.897.155 1.204.492a1.682 1.682 0 1 1-1.203-.492m0 3.774a2.075 2.075 0 0 0 1.449-.63 2.046 2.046 0 0 0 0-2.898 2.05 2.05 0 0 0-3.5 1.45c0 .551.216 1.081.601 1.476.384.385.906.602 1.45.602"/></g></g></g></svg>