<svg xmlns="http://www.w3.org/2000/svg" width="202" height="34" viewBox="0 0 202 34"><g><g><g><path fill="#b2b2b2" d="M192.185 5.086a4.723 4.723 0 0 1 4.75-4.711c2.611.016 4.715 2.126 4.712 4.725-.003 2.605-2.14 4.725-4.755 4.717-2.596-.008-4.715-2.138-4.707-4.731zm4.175-5.148c-.053.018-.105.044-.16.052-2.645.357-4.727 2.754-4.418 5.614.315 2.92 2.86 4.937 5.728 4.614 2.366-.267 4.264-2.165 4.538-4.54A5.16 5.16 0 0 0 198.645.24c-.385-.135-.794-.203-1.192-.302z"/></g><g><path fill="#b2b2b2" d="M52.422 20.744v-8.1h14.596c.135 0 .27.005.403-.01.378-.04.632-.28.638-.655.016-.938.016-1.877.002-2.815-.006-.368-.334-.68-.704-.722-.133-.015-.268-.011-.402-.011H52.43V.637h.307c5.967 0 11.934-.006 17.9.01a8.794 8.794 0 0 1 1.909.206c1.987.45 3.193 1.767 3.511 3.777.067.424.112.856.115 1.285.013 1.8.018 3.602 0 5.402-.01 1.084-.224 2.131-.748 3.095a4.704 4.704 0 0 1-2.359 2.14c-.14.06-.347.22-.338.317.014.155.15.35.292.434 1.037.604 1.934 1.343 2.502 2.427.446.85.64 1.766.649 2.712.02 1.896.02 3.793.001 5.69-.009 1.009-.224 1.98-.755 2.853-.852 1.4-2.169 2.06-3.742 2.283-.35.049-.707.06-1.06.06-9.986.003-19.972.002-29.958.002h-.38V.656h7.776V24.22c0 .969.167 1.135 1.138 1.135h17.755c.116 0 .23.002.346-.004.445-.025.766-.326.77-.769.014-1.015.013-2.03.002-3.046-.004-.415-.353-.755-.771-.789-.105-.009-.211-.004-.317-.004H52.79z"/></g><g><path fill="#b2b2b2" d="M116.718 23.268h7.757v1.096c.003.676.312.992.978.992h16.373c.73 0 .945-.218.946-.941.002-.804.001-1.609 0-2.414 0-.667-.312-.976-.99-.976-6.483 0-12.967.001-19.451-.001-2.417-.001-4.62-1.513-5.348-3.72a5.809 5.809 0 0 1-.281-1.745c-.027-3.16-.024-6.321-.01-9.482.013-2.771 1.805-4.878 4.535-5.358a5.829 5.829 0 0 1 1.003-.077c7.625-.004 15.25-.01 22.876.01.7.002 1.426.099 2.093.303 1.969.603 2.987 2.038 3.284 4.024.061.415.073.839.076 1.26.01 1.263.003 2.528.003 3.792v.333h-7.79c0-.324.002-.646 0-.967-.002-.632-.327-.965-.948-.965-5.468-.002-10.935-.002-16.402 0-.708 0-.945.242-.946.955-.002.833 0 1.666 0 2.5 0 .786.29 1.08 1.07 1.08 6.466 0 12.93.001 19.395-.003 1.018 0 2.012.112 2.936.57 1.57.776 2.353 2.106 2.606 3.785.06.405.075.82.076 1.23.006 3.057.001 6.112.005 9.167 0 .79-.066 1.57-.326 2.32-.626 1.809-1.932 2.825-3.781 3.175-.43.082-.876.115-1.314.116-7.712.006-15.424.011-23.136 0-1.67-.004-3.122-.562-4.196-1.902a4.918 4.918 0 0 1-1.093-2.97c-.052-1.694-.022-3.39-.026-5.086 0-.026.013-.053.026-.101z"/></g><g><path fill="#b2b2b2" d="M154.594 23.269h7.758c0 .384-.002.755 0 1.126.005.635.323.96.953.96 5.477.002 10.954.002 16.43 0 .692 0 .911-.224.913-.914.001-.766-.03-1.534.008-2.298.039-.76-.344-1.13-1.113-1.128-6.455.017-12.91.01-19.366.009-2.364-.001-4.525-1.452-5.28-3.604a5.68 5.68 0 0 1-.316-1.795 625.49 625.49 0 0 1-.01-9.626c.019-3.01 2.268-5.273 5.284-5.357.22-.006.441-.003.662-.003h22.33c.858 0 1.705.092 2.51.409 1.774.699 2.71 2.055 2.997 3.893.068.433.081.877.085 1.317.011 1.255.004 2.51.004 3.764v.337h-7.795v-.952c-.002-.65-.321-.976-.964-.976H163.31c-.723 0-.956.24-.958.972v2.53c.001.722.31 1.033 1.033 1.033 6.465 0 12.93.001 19.394-.002.87 0 1.726.075 2.541.395 1.797.704 2.739 2.078 3.035 3.934.063.395.083.8.084 1.202.007 3.084.004 6.168.004 9.252 0 .79-.075 1.569-.342 2.318-.64 1.791-1.951 2.789-3.782 3.143-.439.085-.894.118-1.343.118-7.711.007-15.423.013-23.135 0-1.705-.004-3.175-.589-4.235-1.99a5.02 5.02 0 0 1-1.017-2.94c-.045-1.675-.018-3.352-.02-5.028 0-.027.013-.054.025-.1z"/></g><g><path fill="#b2b2b2" d="M88.667 25.356c-.765 0-1.043-.275-1.043-1.033V9.468c0-.763.274-1.037 1.037-1.037h15.538c.77 0 1.048.28 1.048 1.06v14.826c0 .753-.287 1.04-1.042 1.04H88.667zm7.716 7.975c3.75 0 7.501.002 11.252-.003.305 0 .614-.03.914-.084 2.549-.463 4.51-2.742 4.498-5.535-.029-7.155-.01-14.31-.011-21.466 0-.286 0-.577-.043-.86-.416-2.785-2.673-4.74-5.488-4.742-7.396-.006-14.792-.008-22.188.008A5.905 5.905 0 0 0 83.65.9c-2.332.7-3.828 2.799-3.829 5.316-.002 7.108 0 14.215.001 21.323 0 .286.012.574.036.86.225 2.743 2.606 4.933 5.36 4.933h11.166z"/></g><g><path fill="#b2b2b2" d="M12.618 3.208H30.96v27.576H3.383V3.206H5.63v.382c0 4.33-.024 8.66.007 12.988.026 3.817 1.546 6.942 4.561 9.298 1.713 1.34 3.695 2.03 5.864 2.183 2.436.173 4.74-.278 6.85-1.526 2.885-1.707 4.677-4.237 5.374-7.5 1.336-6.258-2.828-12.436-9.126-13.572-.75-.135-1.524-.175-2.288-.192-1.304-.031-2.609-.01-3.913-.01h-.342zM10.355.66v6.75h.332c2.139 0 4.278-.013 6.417.007.61.006 1.23.057 1.827.174 4.694.923 8.422 5.7 7.355 10.904-1.158 5.644-7.062 8.93-12.447 6.897-3.495-1.32-5.893-4.723-5.915-8.51-.03-5.286-.01-10.573-.013-15.86V.653H.845V33.31h32.7V.661z"/></g><g><path fill="#b2b2b2" d="M195.39 2.766c.04-.012.09-.04.14-.04.661-.002 1.324-.016 1.985.005.783.026 1.098.4 1.04 1.183-.035.468-.283.781-.749.85-.377.055-.763.05-1.146.058-.412.01-.824.002-1.27.002zm3.202 2.388c.038-.033.052-.048.068-.057.63-.378.904-.985.704-1.9-.165-.758-.741-1.085-1.448-1.133-.879-.06-1.763-.04-2.644-.053-.237-.004-.473-.001-.721-.001v6.15h.829V5.54c.734 0 1.443-.024 2.148.007.682.03.939.34.968 1.028.02.468.063.935.109 1.401.006.07.076.189.121.191.308.017.616.009.924.009l.055-.075c-.426-.257-.336-.662-.358-1.034-.013-.22-.035-.44-.037-.66-.005-.547-.118-1.032-.718-1.254z"/></g></g></g></svg>