<svg xmlns="http://www.w3.org/2000/svg" width="211" height="33" viewBox="0 0 211 33"><g><g><g><path fill="#b2b2b2" d="M205.225 20.19c-.025 4.509-3.265 7.723-7.774 7.711-4.342-.012-7.596-3.399-7.566-7.874.028-4.161 3.392-7.42 7.62-7.384 4.511.04 7.744 3.2 7.72 7.547zM210.856.872c-.186-.608-.607-.939-1.235-.951a75.06 75.06 0 0 0-3.011 0c-.785.016-1.233.497-1.246 1.284-.006.37-.001.741-.001 1.112 0 2.626.004 5.253 0 7.879 0 .288.013.614-.283.778-.307.17-.5-.115-.709-.264-2.256-1.618-4.779-2.38-7.544-2.29-3.065.1-5.802 1.135-8.207 3.034-4.015 3.17-5.411 8.104-3.649 12.827 2.142 5.737 8.47 8.94 14.47 7.593 1.89-.425 3.585-1.26 5.116-2.439.403-.31.69-.196.789.301.015.078.02.159.023.239.04.94.473 1.358 1.418 1.362.864.003 1.727.001 2.59 0 .854 0 1.162-.207 1.48-.988z"/></g><g><path fill="#b2b2b2" d="M147.607 21.092c.185.003.38.047.553.117.314.128.479.363.47.725-.044 2.078-.984 3.647-2.799 4.614-2.544 1.356-5.206 1.48-7.907.478-.876-.325-1.536-.897-1.792-1.843-.314-1.153.19-2.3 1.255-2.832 1.008-.504 2.093-.763 3.199-.894 1.611-.191 3.23-.318 4.846-.472l.008.101c.722 0 1.445-.008 2.167.006zm-6.642 11.182c.596-.08 1.195-.138 1.786-.245 1.94-.351 3.757-.996 5.3-2.277.35-.292.734-.208.948.195.074.14.119.297.179.445.238.592.677.91 1.315.923.813.016 1.627.03 2.44.014.764-.015 1.225-.498 1.226-1.267.004-4.462.01-8.923-.005-13.385a7.777 7.777 0 0 0-.812-3.452c-.968-1.956-2.57-3.214-4.56-3.979-3.469-1.333-7.035-1.48-10.62-.587-3.215.8-5.475 2.787-6.776 5.841-.17.397-.102.707.262.934.175.11.407.175.615.18 1.165.02 2.33.007 3.494.026.787.012 1.383-.326 1.793-.967.627-.978 1.496-1.607 2.613-1.893 1.668-.426 3.358-.398 5.054-.2 1.487.173 2.56.967 3.339 2.207.555.884.001 1.976-1.038 2.04-1.212.076-2.425.15-3.637.22-2.616.155-5.221.396-7.808.835-4.936.837-7.342 6.806-4.33 10.796 1.432 1.897 3.389 2.927 5.693 3.352.55.102 1.107.163 1.662.244z"/></g><g><path fill="#b2b2b2" d="M74.324 13.026h-5.54c-.948 0-1.427-.475-1.428-1.422-.003-2.035-.003-4.069 0-6.103 0-.978.463-1.438 1.437-1.438h10.81a6.34 6.34 0 0 1 2.32.447c1.826.714 2.785 2.174 2.73 4.136-.063 2.201-1.262 3.658-3.483 4.175a7.745 7.745 0 0 1-1.636.194c-1.737.024-3.473.009-5.21.009zm-12.307 2.581v14.135c0 .12-.002.241.004.361.033.726.469 1.19 1.192 1.206.983.022 1.968.023 2.951 0 .724-.016 1.16-.486 1.188-1.21.004-.12.003-.24.002-.36-.001-3.7-.004-7.398-.004-11.098 0-.991.46-1.45 1.457-1.451 3.012-.001 6.024-.01 9.036.007.609.004 1.223.067 1.825.166 1.01.166 1.825.65 2.32 1.585.26.495.55.979.778 1.489.712 1.595.933 3.306 1.141 5.018.177 1.451.347 2.904.776 4.31.32 1.052.916 1.533 2.009 1.551 1.244.02 2.49.008 3.735 0 .436-.003.684-.396.503-.793-.609-1.328-1-2.722-1.304-4.145-.52-2.437-1.04-4.874-1.564-7.31-.252-1.175-.711-2.234-1.712-2.98-.153-.114-.14-.24-.028-.355.118-.121.254-.225.388-.329 2.168-1.681 3.545-3.815 3.652-6.612.096-2.525-.696-4.745-2.586-6.487C86 .666 83.86-.084 81.458-.088 75.453-.096 69.449-.09 63.445-.09c-.08 0-.161-.002-.241.004-.724.056-1.155.506-1.178 1.227-.004.12-.003.24-.003.361v14.105z"/></g><g><path fill="#b2b2b2" d="M18.96 19.862v3.104h37.656v2.3H16.588v-7.72h.418c10.072 0 20.144-.003 30.215.004 1.868.002 3.575-.466 5.058-1.62 3.776-2.941 3.92-8.583.313-11.733-1.559-1.361-3.378-1.985-5.44-1.984-11.668.006-23.336.003-35.005.003H2.525v29.078H0V-.09h.315c15.635 0 31.27-.001 46.904.001 3.038 0 5.676 1 7.75 3.258 2.047 2.232 2.924 4.899 2.543 7.894-.515 4.052-2.74 6.815-6.59 8.236-1.17.432-2.397.563-3.64.563H19.417z"/></g><g><path fill="#b2b2b2" d="M47.387 11.397h-.385c-9.328 0-18.657.003-27.985-.002-2.305 0-4.43.574-6.291 1.96-2.236 1.667-3.508 3.912-3.895 6.665-.02.142-.057.282-.072.355V8.288h38.628zm8.788 17.64l-36.84-.001c-.181 0-.362 0-.543-.005-1.947-.04-3.645-.718-5.084-2.02-3.57-3.229-3.369-8.836.421-11.736 1.485-1.136 3.192-1.581 5.042-1.58 10.051.004 20.102.001 30.153.001h.421V6.001H6.222v25.301h2.506v-9.03c.05.138.085.273.103.41.328 2.394 1.35 4.435 3.145 6.06 1.998 1.81 4.389 2.58 7.062 2.578 12.42-.004 24.841-.001 37.262-.001h.324v-2.283z"/></g><g><path fill="#b2b2b2" d="M105.824 27.86c-2.144-.029-4.118-.563-5.777-1.97-1.705-1.448-2.68-3.302-2.738-5.544-.057-2.214.852-4.073 2.432-5.594 1.66-1.598 3.696-2.27 5.974-2.278 2.573-.008 4.81.808 6.558 2.75 1.183 1.315 1.887 2.861 1.971 4.638.086 1.815-.52 3.432-1.624 4.855-1.395 1.796-3.265 2.766-5.506 3.044-.428.054-.86.067-1.29.099zm-.001 4.35c1.058-.099 2.122-.153 3.172-.305 2.432-.352 4.665-1.21 6.632-2.716 3.835-2.933 5.424-8.057 3.827-12.6-1.31-3.724-3.95-6.165-7.634-7.47-3.418-1.213-6.924-1.284-10.442-.495-3.099.695-5.71 2.22-7.619 4.801-1.825 2.468-2.626 5.247-2.166 8.297.614 4.075 2.877 6.99 6.548 8.82 2.413 1.2 5.01 1.586 7.682 1.668z"/></g><g><path fill="#b2b2b2" d="M157.598 19.802V9.758c0-1.04.443-1.481 1.483-1.482.874 0 1.747-.002 2.62 0 .916.004 1.373.457 1.385 1.364.005.38 0 .762.012 1.143.011.353.17.472.51.37.14-.043.275-.124.39-.214 2.01-1.571 4.316-2.388 6.828-2.672 1.159-.13 2.318-.219 3.479-.002 3.514.655 6.627 3.763 7.258 7.281.115.638.175 1.293.178 1.94.015 4.121.007 8.241.006 12.361 0 1.068-.425 1.49-1.501 1.49-.874 0-1.747-.005-2.62-.011-.922-.007-1.368-.45-1.37-1.369-.003-4.14-.003-8.28-.005-12.42 0-.716-.065-1.423-.3-2.103-.534-1.544-1.648-2.446-3.222-2.746-1.901-.362-3.77-.185-5.524.664-2.285 1.107-3.531 3.01-3.998 5.455a8.158 8.158 0 0 0-.119 1.495c-.01 3.198-.006 6.396-.01 9.594 0 .198-.017.403-.068.593-.133.498-.507.816-1.022.827a70.364 70.364 0 0 1-3.162.01c-.796-.02-1.229-.514-1.23-1.328-.002-3.399 0-6.797 0-10.196z"/></g><g><path fill="#b2b2b2" d="M128.016 15.609v14.224c0 .14.005.282-.014.42-.094.665-.51 1.062-1.197 1.074-1.175.02-2.35.02-3.524 0-.736-.011-1.178-.47-1.23-1.21-.005-.09-.002-.181-.002-.271 0-9.483 0-18.966.002-28.448 0-.189.016-.382.058-.565.131-.565.533-.909 1.114-.916 1.205-.014 2.41-.015 3.614 0 .674.008 1.128.478 1.175 1.167.008.12.004.24.004.36V15.61z"/></g></g></g></svg>