<svg xmlns="http://www.w3.org/2000/svg" width="223" height="40" viewBox="0 0 223 40"><g><g><g><path fill="#b2b2b2" d="M127.717 34.933l2.732-22.127h23.697l.568-4.165h-23.77l.97-7.7h.822c9.511 0 19.028.192 28.532-.072a8.436 8.436 0 0 1 7.516 12.516c-1.578 3.109-4.152 4.932-7.368 6.006-.51.17-1.019.346-1.635.555l12.521 6.369L175.428.972h36.634c0 .18.018.353-.002.522-.277 2.28-.551 4.562-.856 6.84-.02.152-.263.365-.428.391-.371.06-.758.02-1.138.02H191.4l-.559 4.074h19.815c-.146 1.232-.279 2.397-.422 3.56-.18 1.468-.4 2.931-.535 4.403-.051.564-.23.723-.792.721-6.147-.02-12.294 0-18.442-.029-.658-.003-.895.165-.952.829-.103 1.211-.307 2.415-.48 3.704h19.998c-.207 1.728-.402 3.371-.602 5.014-.139 1.13-.318 2.257-.413 3.391-.04.485-.223.578-.664.577-4.726-.014-9.451-.009-14.177-.009h-21.909l-.612 5.02-27.1-16.298-1.407 11.231z"/></g><g><path fill="#b2b2b2" d="M58.594 34.934h-16.53l4.16-33.96h16.525L61.33 12.667h5.181l1.446-11.7H84.47c-.096.838-.183 1.643-.281 2.446l-2.387 19.39c-.481 3.906-.964 7.811-1.44 11.717-.036.3-.117.461-.47.46-5.306-.012-10.612-.012-15.917-.017-.037 0-.074-.025-.195-.067l1.453-11.825h-5.172l-1.467 11.864z"/></g><g><path fill="#b2b2b2" d="M89.058.967h16.818l-2.929 23.439h4.452L110.29.975h17.086c-.137 1.166-.264 2.293-.402 3.418-.547 4.46-1.11 8.92-1.645 13.382-.88 7.343-4.863 12.59-11.142 16.182-3.017 1.725-6.396 2.365-9.861 2.46-2.483.068-4.983.123-7.37-.707-5.245-1.825-8.81-5.27-10.015-10.806-.51-2.343-.29-4.742-.007-7.106.637-5.355 1.323-10.704 1.99-16.055.032-.253.086-.504.133-.776z"/></g><g><path fill="#b2b2b2" d="M1.135 25.745h23.12l.025-.12c-.524-.22-1.046-.443-1.572-.658-4.773-1.945-9.56-3.858-14.315-5.846-2.984-1.247-5.03-3.408-5.45-6.69-.502-3.94.944-7.16 4.12-9.58 1.86-1.419 3.985-1.926 6.3-1.92 9.29.023 18.58.01 27.87.01h.77L41.057 8.6h-24.43l-.021.106c1.425.607 2.853 1.207 4.275 1.822 4.988 2.157 9.977 4.312 14.957 6.487.601.263 1.16.628 1.723.969 2.398 1.45 3.146 3.702 2.902 6.323-.41 4.404-2.527 7.723-6.566 9.685-1.439.7-3.014.97-4.606.973-9.63.023-19.26.02-28.89.024-.117 0-.234-.019-.4-.033l1.135-9.212z"/></g><g><path fill="#b2b2b2" d="M216.507 3.842a2.79 2.79 0 0 1 2.745-2.767c1.53-.014 2.781 1.243 2.779 2.79-.003 1.513-1.23 2.718-2.771 2.72a2.757 2.757 0 0 1-2.753-2.743zm2.76-3.165a3.178 3.178 0 0 0-3.188 3.148c-.02 1.694 1.451 3.185 3.16 3.202 1.76.017 3.207-1.43 3.197-3.197a3.149 3.149 0 0 0-3.17-3.153z"/></g><g><path fill="#b2b2b2" d="M218.689 2.321c.492.136.935.223 1.34.398.087.037.104.546.038.574-.409.177-.85.28-1.378.436zm-.665 3.245h.644V4.097c.483-.142.762-.036.892.405.062.208.208.39.274.597.15.476.449.604.955.424-.245-.515-.484-1.014-.74-1.554.601-.222.936-.627.76-1.251-.18-.642-.751-.706-1.307-.723-.458-.014-.918-.003-1.478-.003z"/></g></g></g></svg>