<svg xmlns="http://www.w3.org/2000/svg" width="22" height="28" viewBox="0 0 22 28"><g><g><path fill="#fff" d="M4.455 25.685c-1.412 0-2.557-.934-2.58-2.085l1.49-16.806H5.88v2.28c0 .416.333.75.75.75s.75-.334.75-.75v-2.28h7.745v2.28c0 .416.334.75.75.75.418 0 .751-.334.751-.75v-2.28h2.513L20.634 23.6c-.023 1.151-1.173 2.085-2.58 2.085zm6.8-24.184a3.873 3.873 0 0 1 3.87 3.786h-7.74a3.873 3.873 0 0 1 3.87-3.786zm10.874 22L20.572 5.97a.75.75 0 0 0-.745-.684h-3.202A5.375 5.375 0 0 0 11.255 0a5.375 5.375 0 0 0-5.37 5.287H2.681a.745.745 0 0 0-.745.684L.38 23.5c0 .021-.005.044-.005.066 0 1.996 1.829 3.62 4.08 3.62h13.599c2.252 0 4.08-1.624 4.08-3.62 0-.022 0-.045-.005-.067z"/></g></g></svg>