<svg xmlns="http://www.w3.org/2000/svg" width="26" height="20" viewBox="0 0 26 20"><g><g><path fill="#fff" d="M22.107 14.3a3.565 3.565 0 0 0-4.489-2.706V8.879h6.18v5.42h-1.691zm-3.488 2.85c-1.18 0-2.14-.961-2.14-2.141 0-1.18.96-2.14 2.14-2.14 1.18 0 2.14.96 2.14 2.14 0 1.18-.96 2.14-2.14 2.14zm-11.02 0c-1.18 0-2.14-.961-2.14-2.141 0-1.18.96-2.14 2.14-2.14 1.18 0 2.14.96 2.14 2.14 0 1.18-.96 2.14-2.14 2.14zm-5.18-4.04v-9.5c0-.657.534-1.191 1.19-1.191h11.4c.656 0 1.19.534 1.19 1.19v8.792A3.558 3.558 0 0 0 15.13 14.3h-4.043A3.566 3.566 0 0 0 7.6 11.45a3.565 3.565 0 0 0-3.488 2.85H3.61c-.656 0-1.19-.534-1.19-1.19zm17.996-8.031l2.38 2.38h-5.177V5.08zm4.595 2.589l-3.8-3.8a.709.709 0 0 0-.501-.208h-3.09v-.05c0-1.44-1.171-2.61-2.61-2.61h-11.4A2.612 2.612 0 0 0 1 3.61v9.5c0 1.438 1.17 2.608 2.61 2.608h.501a3.565 3.565 0 0 0 3.488 2.85 3.566 3.566 0 0 0 3.488-2.85h4.043a3.565 3.565 0 0 0 3.489 2.85 3.565 3.565 0 0 0 3.488-2.85h2.401a.71.71 0 0 0 .71-.71V8.17a.709.709 0 0 0-.208-.501z"/><path fill="none" stroke="#041e50" stroke-miterlimit="20" stroke-width=".2" d="M22.107 14.3a3.565 3.565 0 0 0-4.489-2.706V8.879h6.18v5.42h-1.691zm-3.488 2.85c-1.18 0-2.14-.961-2.14-2.141 0-1.18.96-2.14 2.14-2.14 1.18 0 2.14.96 2.14 2.14 0 1.18-.96 2.14-2.14 2.14zm-11.02 0c-1.18 0-2.14-.961-2.14-2.141 0-1.18.96-2.14 2.14-2.14 1.18 0 2.14.96 2.14 2.14 0 1.18-.96 2.14-2.14 2.14zm-5.18-4.04v-9.5c0-.657.534-1.191 1.19-1.191h11.4c.656 0 1.19.534 1.19 1.19v8.792A3.558 3.558 0 0 0 15.13 14.3h-4.043A3.566 3.566 0 0 0 7.6 11.45a3.565 3.565 0 0 0-3.488 2.85H3.61c-.656 0-1.19-.534-1.19-1.19zm17.996-8.031l2.38 2.38h-5.177V5.08zm4.595 2.589l-3.8-3.8a.709.709 0 0 0-.501-.208h-3.09v-.05c0-1.44-1.171-2.61-2.61-2.61h-11.4A2.612 2.612 0 0 0 1 3.61v9.5c0 1.438 1.17 2.608 2.61 2.608h.501a3.565 3.565 0 0 0 3.488 2.85 3.566 3.566 0 0 0 3.488-2.85h4.043a3.565 3.565 0 0 0 3.489 2.85 3.565 3.565 0 0 0 3.488-2.85h2.401a.71.71 0 0 0 .71-.71V8.17a.709.709 0 0 0-.208-.501z"/></g></g></svg>