<svg xmlns="http://www.w3.org/2000/svg" width="84" height="31" viewBox="0 0 84 31"><g><g><g><path fill="#646464" d="M21.399 10.698L15.66 21.497a1.178 1.178 0 0 1-2.081 0L7.898 10.743a1.178 1.178 0 0 1 1.038-1.73h11.45a1.146 1.146 0 0 1 1.013 1.685zM6.777 0C4.719 0 3.401 2.188 4.364 4.007l2.655 5.029H2.205A1.77 1.77 0 0 0 .64 11.63L9.18 27.796a1.77 1.77 0 0 0 3.13 0l2.319-4.367 2.91 5.51c1.024 1.938 3.799 1.941 4.826.006L35.671 3.906C36.611 2.136 35.328 0 33.323 0z"/></g><g><path fill="#646464" d="M61.559 11.616h-2.904v9.952a.343.343 0 0 1-.342.342h-2.24a.343.343 0 0 1-.342-.342v-9.952h-2.92a.328.328 0 0 1-.343-.325V9.53a.328.328 0 0 1 .342-.326h8.748a.344.344 0 0 1 .36.325v1.761a.344.344 0 0 1-.36.325z"/></g><g><path fill="#646464" d="M70.88 21.838c-.598.085-1.605.222-3.45.222-2.206 0-4.154-.564-4.154-3.675v-5.678c0-3.111 1.966-3.659 4.17-3.659 1.846 0 2.836.137 3.434.223.24.034.342.12.342.342v1.592a.343.343 0 0 1-.342.342h-3.604c-.804 0-1.094.273-1.094 1.162v1.556h4.562c.189 0 .342.154.342.342v1.624a.343.343 0 0 1-.342.343h-4.562v1.812c0 .888.29 1.162 1.094 1.162h3.604c.19 0 .342.154.342.342v1.59c0 .221-.103.324-.342.358z"/></g><g><path fill="#646464" d="M83.778 21.906H81.06c-.222 0-.325-.07-.444-.256l-2.357-3.741-2.135 3.659c-.12.205-.239.342-.426.342h-2.53c-.17 0-.256-.103-.256-.222a.317.317 0 0 1 .035-.12l3.703-6.176-3.742-5.863a.242.242 0 0 1-.034-.103.246.246 0 0 1 .256-.222h2.752c.188 0 .325.17.426.325l2.187 3.453L80.61 9.53c.086-.154.24-.325.426-.325h2.53a.246.246 0 0 1 .256.222.245.245 0 0 1-.034.103l-3.723 5.9 3.883 6.139a.38.38 0 0 1 .051.17c0 .1-.085.168-.222.168z"/></g><g><path fill="#646464" d="M48.371 9.24a.264.264 0 0 0-.258.212l-2.481 9.184c-.034.188-.086.256-.24.256s-.205-.07-.239-.256L42.67 9.45a.264.264 0 0 0-.258-.213h-2.443a.264.264 0 0 0-.257.324s3.031 10.532 3.064 10.636c.405 1.255 1.387 1.855 2.636 1.855 1.19 0 2.228-.628 2.634-1.851a5264.5 5264.5 0 0 0 3.012-10.64.264.264 0 0 0-.257-.324z"/></g><g><path fill="#646464" d="M21.399 10.698L15.66 21.497a1.178 1.178 0 0 1-2.081 0L7.898 10.743a1.178 1.178 0 0 1 1.038-1.73h11.45a1.146 1.146 0 0 1 1.013 1.685zM6.777 0C4.719 0 3.401 2.188 4.364 4.007l2.655 5.029H2.205A1.77 1.77 0 0 0 .64 11.63L9.18 27.796a1.77 1.77 0 0 0 3.13 0l2.319-4.367 2.91 5.51c1.024 1.938 3.799 1.941 4.826.006L35.671 3.906C36.611 2.136 35.328 0 33.323 0z"/></g></g></g></svg>