<svg xmlns="http://www.w3.org/2000/svg" width="77" height="36" viewBox="0 0 77 36"><g><g><g><g><path fill="#efaf06" d="M10.694 3H1.859v31.294h8.835v1.634H0V1.366h10.694z"/></g></g><g><g><path fill="#4a4a4a" d="M9.31 11.876c.073-.572.279-1.036.616-1.391.336-.355.763-.533 1.28-.533.276 0 .523.051.74.153.216.101.403.237.56.408.157.17.281.373.374.609.092.235.152.486.18.754zm.733 2.483c-.378-.318-.618-.777-.72-1.376h5.37a3.564 3.564 0 0 0 .028-.457c-.001-.526-.075-1.028-.223-1.508-.147-.48-.366-.9-.657-1.26a3.15 3.15 0 0 0-1.093-.857c-.438-.212-.948-.318-1.529-.318-.526 0-1.005.101-1.439.304-.434.203-.81.477-1.127.823-.319.346-.566.75-.74 1.21a4.133 4.133 0 0 0-.264 1.482c0 .572.097 1.09.29 1.556a3.6 3.6 0 0 0 .797 1.197c.336.332.733.59 1.19.775a3.9 3.9 0 0 0 1.473.277c.673 0 1.252-.125 1.737-.374.484-.249.901-.581 1.252-.996l-.982-.872a3.507 3.507 0 0 1-.9.65c-.304.148-.664.222-1.08.222-.544 0-1.005-.16-1.383-.478z"/></g><g><path fill="#4a4a4a" d="M21.555 15.826c-.461.254-1.047.38-1.757.38-.544 0-1.047-.099-1.509-.297a3.72 3.72 0 0 1-1.996-2.02 3.786 3.786 0 0 1-.286-1.474 3.838 3.838 0 0 1 1.08-2.698 3.742 3.742 0 0 1 2.725-1.134c.692 0 1.266.115 1.722.345.457.231.856.536 1.197.914l-1.037 1.12a3.88 3.88 0 0 0-.824-.657c-.29-.17-.648-.256-1.072-.256-.304 0-.586.062-.844.187-.259.125-.48.293-.664.505-.185.212-.33.459-.436.74-.106.282-.16.584-.16.907 0 .332.054.64.16.927.106.286.256.535.45.747.193.212.424.38.692.505.267.125.562.187.885.187.397 0 .745-.086 1.045-.256.3-.17.583-.39.85-.657l1.01.996c-.359.406-.77.735-1.23.99z"/></g><g><path fill="#4a4a4a" d="M29.637 11.502c.11.286.165.59.165.913 0 .323-.05.625-.151.907a2.127 2.127 0 0 1-1.134 1.245c-.271.124-.576.187-.915.187-.32 0-.616-.063-.887-.187a2.209 2.209 0 0 1-1.162-1.26 2.577 2.577 0 0 1-.165-.92c0-.322.05-.624.151-.906a2.129 2.129 0 0 1 1.134-1.245c.271-.125.572-.187.902-.187a2.126 2.126 0 0 1 1.602.699c.197.217.35.468.46.754zm1.556 2.366a3.71 3.71 0 0 0 .297-1.48 3.783 3.783 0 0 0-1.1-2.692 3.787 3.787 0 0 0-1.231-.816 4.004 4.004 0 0 0-1.557-.297c-.563 0-1.082.101-1.557.304a3.873 3.873 0 0 0-1.231.823 3.821 3.821 0 0 0-1.114 2.705 3.732 3.732 0 0 0 1.1 2.678c.346.346.757.618 1.232.816.475.198.989.298 1.542.298.563 0 1.084-.102 1.564-.305a3.85 3.85 0 0 0 1.239-.823c.345-.346.617-.75.816-1.21z"/></g><g><path fill="#4a4a4a" d="M34.88 16.04h-1.688V8.736h1.688V9.88c.12-.177.25-.342.393-.496a2.566 2.566 0 0 1 1.118-.698c.225-.07.48-.105.766-.105.828 0 1.467.254 1.918.762.45.507.676 1.19.676 2.047v4.65h-1.688v-4.142c0-.57-.135-1.01-.405-1.318-.27-.308-.652-.463-1.145-.463-.485 0-.878.16-1.18.477-.302.317-.453.761-.453 1.332z"/></g><g><path fill="#4a4a4a" d="M46.545 8.735h1.757l-2.989 7.36h-1.508l-3.003-7.36h1.8l1.964 5.368z"/></g><g><path fill="#4a4a4a" d="M50.571 11.876c.074-.572.28-1.036.616-1.391.337-.355.763-.533 1.28-.533.277 0 .523.051.74.153.217.101.403.237.56.408.157.17.282.373.374.609.092.235.152.486.18.754zm.734 2.483c-.379-.318-.619-.777-.72-1.376h5.369c.009-.083.016-.162.02-.236a5.1 5.1 0 0 0-.215-1.73c-.147-.479-.366-.899-.656-1.258A3.148 3.148 0 0 0 54.01 8.9c-.438-.212-.948-.318-1.53-.318-.525 0-1.005.101-1.438.304-.434.203-.81.477-1.128.823-.318.346-.565.75-.74 1.21a4.134 4.134 0 0 0-.263 1.482c0 .572.097 1.09.29 1.556.194.466.46.865.796 1.197.337.332.733.59 1.19.775.457.184.948.277 1.474.277.673 0 1.252-.125 1.736-.374a4.05 4.05 0 0 0 1.252-.996l-.982-.872a3.51 3.51 0 0 1-.9.65c-.304.148-.663.222-1.079.222-.544 0-1.005-.16-1.383-.478z"/></g><g><path fill="#4a4a4a" d="M59.143 16.04h-1.688V8.736h1.688v1.646c.23-.553.558-.996.983-1.328.424-.332.959-.484 1.605-.457v1.771h-.097c-.37 0-.706.06-1.01.18-.305.12-.567.3-.789.54-.221.24-.392.542-.512.906-.12.365-.18.787-.18 1.266z"/></g><g><path fill="#4a4a4a" d="M68.179 14.892c-.139.286-.33.524-.575.713-.244.189-.532.332-.864.429a3.792 3.792 0 0 1-1.066.145 4.918 4.918 0 0 1-1.598-.277 5.117 5.117 0 0 1-1.501-.816l.747-1.135c.397.296.8.52 1.21.671.41.152.806.229 1.184.229.36 0 .638-.072.837-.215a.673.673 0 0 0 .297-.574v-.028a.533.533 0 0 0-.131-.36 1.189 1.189 0 0 0-.36-.27 3.164 3.164 0 0 0-.526-.207l-.615-.187a14.965 14.965 0 0 1-.81-.276 2.93 2.93 0 0 1-.733-.395 1.995 1.995 0 0 1-.533-.595c-.138-.235-.207-.528-.207-.878v-.028c0-.341.066-.65.2-.927a2.07 2.07 0 0 1 .554-.706c.235-.194.512-.341.83-.443a3.327 3.327 0 0 1 1.017-.152c.461 0 .927.074 1.397.222.471.147.9.35 1.287.608l-.664 1.19a5.6 5.6 0 0 0-1.065-.505 3.063 3.063 0 0 0-.997-.186c-.323 0-.574.069-.754.207a.637.637 0 0 0-.27.526v.028c0 .129.047.242.139.338.092.097.214.185.366.263.153.079.328.153.526.222s.404.136.616.2c.267.083.535.18.803.29.267.112.51.248.726.41.217.16.394.357.533.587.138.23.207.512.207.844v.028c0 .387-.069.724-.207 1.01z"/></g><g><path fill="#4a4a4a" d="M71.133 11.876c.074-.572.28-1.036.616-1.391.336-.355.763-.533 1.28-.533.276 0 .523.051.74.153.217.101.403.237.56.408.157.17.282.373.374.609.092.235.152.486.18.754zm.733 2.483c-.378-.318-.618-.777-.72-1.376h5.37c.009-.083.016-.162.02-.236a5.103 5.103 0 0 0-.215-1.73c-.147-.479-.366-.899-.656-1.258A3.148 3.148 0 0 0 74.57 8.9c-.438-.212-.947-.318-1.529-.318-.525 0-1.005.101-1.438.304-.434.203-.81.477-1.128.823a3.72 3.72 0 0 0-.74 1.21 4.134 4.134 0 0 0-.263 1.482c0 .572.097 1.09.29 1.556.194.466.459.865.796 1.197.337.332.733.59 1.19.775.456.184.948.277 1.474.277.673 0 1.252-.125 1.736-.374a4.05 4.05 0 0 0 1.252-.996l-.982-.872a3.509 3.509 0 0 1-.9.65c-.304.148-.664.222-1.079.222-.544 0-1.005-.16-1.384-.478z"/></g></g><g><g><path fill="#4a4a4a" d="M12.684 24.067c.12.285.18.6.18.948 0 .347-.06.665-.18.954-.12.289-.283.533-.488.734-.206.2-.438.356-.697.468a2.07 2.07 0 0 1-1.62.006 1.982 1.982 0 0 1-.675-.468 2.25 2.25 0 0 1-.459-.735 2.597 2.597 0 0 1-.168-.96c0-.361.056-.687.168-.976.112-.29.263-.532.453-.728.19-.197.413-.347.668-.451a2.17 2.17 0 0 1 .825-.156c.279 0 .548.056.808.167.259.112.491.268.697.469.205.2.368.443.488.728zm1.04 3.957v-8.481h-.895v3.624a3.657 3.657 0 0 0-.4-.488 2.582 2.582 0 0 0-1.9-.79c-.365 0-.717.072-1.058.215a2.897 2.897 0 0 0-1.568 1.598 3.396 3.396 0 0 0-.244 1.324c0 .496.081.938.244 1.325.162.387.38.714.65.982a2.817 2.817 0 0 0 1.976.819c.278 0 .532-.035.76-.105.229-.07.436-.166.622-.29.186-.124.355-.268.505-.43.152-.163.289-.333.413-.511v1.208z"/></g><g><path fill="#4a4a4a" d="M15.595 28.024v-6.007h.894v6.007zm-.058-7.32v-.987h1.022v.987z"/></g><g><path fill="#4a4a4a" d="M23.025 23.882c.124.252.186.533.186.842 0 .31-.062.591-.186.843a2.03 2.03 0 0 1-.494.644c-.205.179-.44.316-.702.413a2.37 2.37 0 0 1-.825.145c-.28 0-.545-.048-.796-.145a1.963 1.963 0 0 1-.662-.418 2.04 2.04 0 0 1-.454-.651 2.042 2.042 0 0 1-.168-.842c0-.31.054-.59.163-.843a1.906 1.906 0 0 1 1.11-1.051c.25-.093.52-.14.807-.14.286 0 .561.049.825.146.263.097.497.234.702.412.206.179.37.393.494.645zm.831 4.374c.143-.364.215-.79.215-1.278v-4.96h-.895v1.08a3.922 3.922 0 0 0-.418-.465 2.7 2.7 0 0 0-1.156-.645 2.874 2.874 0 0 0-.773-.099c-.356 0-.704.066-1.045.198a2.732 2.732 0 0 0-1.54 1.458 2.87 2.87 0 0 0-.238 1.19c0 .442.08.837.238 1.186.159.349.37.645.634.889.263.244.563.43.9.557.337.128.687.192 1.051.192.55 0 1.015-.124 1.395-.372.38-.247.7-.546.964-.894v.709c0 .704-.198 1.237-.593 1.597-.395.36-.925.54-1.591.54-.434 0-.84-.066-1.22-.197a4.34 4.34 0 0 1-1.092-.57l-.407.698a4.63 4.63 0 0 0 1.29.627c.456.14.937.21 1.44.21.465 0 .885-.063 1.26-.187.377-.124.698-.308.965-.552.268-.244.473-.548.616-.912z"/></g><g><path fill="#4a4a4a" d="M25.942 28.024v-6.007h.895v6.007zm-.058-7.32v-.987h1.023v.987z"/></g><g><path fill="#4a4a4a" d="M29.913 26.316c0 .372.093.631.28.778.185.148.43.221.731.221.155 0 .3-.015.436-.046.135-.031.28-.086.436-.163v.767c-.155.085-.32.149-.494.192-.175.042-.37.063-.587.063-.24 0-.465-.03-.674-.093-.209-.061-.39-.16-.54-.296a1.368 1.368 0 0 1-.354-.528 2.126 2.126 0 0 1-.128-.779v-3.625h-.837v-.79h.837v-1.812h.894v1.812h1.906v.79h-1.906z"/></g><g><path fill="#4a4a4a" d="M35.4 24.98c.371 0 .702.027.991.081.29.055.546.113.77.175v.58c0 .24-.052.46-.156.657a1.591 1.591 0 0 1-.429.51 2.079 2.079 0 0 1-.637.338 2.449 2.449 0 0 1-.781.122c-.2 0-.392-.027-.573-.081a1.503 1.503 0 0 1-.48-.239 1.181 1.181 0 0 1-.331-.377 1.04 1.04 0 0 1-.121-.511c0-.388.15-.693.451-.918.301-.225.733-.337 1.297-.337zm-1.01-2.132a3.6 3.6 0 0 1 .97-.122c.566 0 1.005.138 1.319.412.314.275.47.684.47 1.226v.21a7.312 7.312 0 0 0-.836-.187 6.411 6.411 0 0 0-1.01-.07c-.38 0-.727.043-1.04.128a2.54 2.54 0 0 0-.814.372 1.664 1.664 0 0 0-.529.61 1.835 1.835 0 0 0-.185.843c0 .317.063.592.191.824.128.233.298.428.512.587.212.16.453.277.72.355.267.077.54.116.819.116.534 0 .978-.105 1.33-.314.353-.21.633-.45.842-.72v.906h.86v-3.671c0-.798-.22-1.4-.662-1.807-.441-.407-1.073-.61-1.894-.61-.441 0-.833.045-1.173.133-.341.09-.678.211-1.011.366l.267.732c.28-.131.564-.238.854-.32z"/></g><g><path fill="#4a4a4a" d="M39.788 28.024v-8.481h.894v8.48z"/></g></g><g><g><path fill="#4a4a4a" d="M16.349 2.13a1.5 1.5 0 0 1-.103.563c-.069.171-.165.318-.288.442-.124.124-.274.22-.45.289a1.607 1.607 0 0 1-.589.103h-.811V.722h.811c.216 0 .412.036.589.106a1.302 1.302 0 0 1 .738.74 1.5 1.5 0 0 1 .103.562zm.598.801c.106-.252.16-.523.16-.812 0-.29-.054-.56-.16-.81A1.911 1.911 0 0 0 16.5.658a2.085 2.085 0 0 0-.693-.432 2.429 2.429 0 0 0-.883-.155h-1.531v4.107h1.531c.32 0 .615-.053.883-.158.268-.106.499-.25.693-.434.193-.184.343-.402.448-.655z"/></g><g><path fill="#4a4a4a" d="M21.02.722h-2.324v1.056h2.06v.652h-2.06v1.097h2.353v.651H17.98V.071h3.04z"/></g><g><path fill="#4a4a4a" d="M22.557 1.356a.43.43 0 0 0 .15.164c.072.051.172.098.3.141.127.043.29.088.485.135.216.055.407.115.574.182.166.066.305.148.414.243a.96.96 0 0 1 .336.784c0 .195-.036.37-.108.522a1.107 1.107 0 0 1-.3.387 1.317 1.317 0 0 1-.461.24c-.18.055-.377.083-.592.083a2.479 2.479 0 0 1-1.713-.657l.434-.517c.2.173.4.304.604.396.203.092.434.138.692.138.223 0 .4-.047.531-.14a.445.445 0 0 0 .197-.382.496.496 0 0 0-.038-.2.399.399 0 0 0-.141-.16 1.184 1.184 0 0 0-.283-.139 4.72 4.72 0 0 0-.468-.135 4.93 4.93 0 0 1-.585-.17 1.486 1.486 0 0 1-.43-.234.933.933 0 0 1-.264-.34 1.168 1.168 0 0 1-.091-.488 1.126 1.126 0 0 1 .392-.868 1.28 1.28 0 0 1 .442-.244c.171-.056.359-.085.562-.085.301 0 .572.044.813.132.24.088.466.216.678.385l-.388.545a2.526 2.526 0 0 0-.557-.314 1.51 1.51 0 0 0-.557-.108c-.212 0-.376.048-.493.144a.436.436 0 0 0-.176.349c0 .082.013.152.04.21z"/></g><g><path fill="#4a4a4a" d="M28.706.722h-2.324v1.056h2.06v.652h-2.06v1.097h2.353v.651h-3.069V.071h3.04z"/></g><g><path fill="#4a4a4a" d="M32.461.071h.716v4.107h-.603l-2.26-2.922v2.922h-.716V.071h.667l2.196 2.84z"/></g><g><path fill="#4a4a4a" d="M37.15.071h.78l-1.708 4.137h-.633L33.88.07h.798l1.238 3.157z"/></g><g><path fill="#4a4a4a" d="M41.635 1.564c.068.178.102.367.102.566 0 .2-.034.389-.102.567a1.427 1.427 0 0 1-.285.463 1.327 1.327 0 0 1-.997.426 1.344 1.344 0 0 1-1.007-.435 1.432 1.432 0 0 1-.287-.466 1.56 1.56 0 0 1-.103-.566c0-.2.034-.388.103-.567.068-.178.163-.332.284-.463a1.351 1.351 0 0 1 .998-.425 1.346 1.346 0 0 1 1.006.434c.123.133.22.288.288.466zm.7 1.376c.106-.258.16-.532.16-.821a2.147 2.147 0 0 0-.6-1.496 2.062 2.062 0 0 0-.674-.455A2.197 2.197 0 0 0 40.353 0a2.147 2.147 0 0 0-1.549.63c-.192.194-.34.42-.447.678a2.151 2.151 0 0 0-.158.821c0 .29.053.564.158.822.106.258.253.483.44.675.189.191.413.343.675.454.263.112.552.168.869.168a2.148 2.148 0 0 0 1.549-.63c.192-.195.34-.42.446-.679z"/></g><g><path fill="#4a4a4a" d="M43.369.071h.716v3.456h2.159v.651h-2.875z"/></g><g><path fill="#4a4a4a" d="M49.242.071h.78l-1.707 4.137h-.634L45.974.07h.798l1.238 3.157z"/></g><g><path fill="#4a4a4a" d="M51.483.071v4.107h-.716V.071z"/></g><g><path fill="#4a4a4a" d="M55.544 2.13c0 .205-.035.392-.103.563-.07.171-.165.318-.289.442-.123.124-.273.22-.45.289a1.606 1.606 0 0 1-.588.103h-.812V.722h.812c.216 0 .412.036.588.106a1.3 1.3 0 0 1 .739.74c.068.17.103.358.103.562zm.598.801c.106-.252.158-.523.158-.812 0-.29-.052-.56-.158-.81a1.91 1.91 0 0 0-.449-.651 2.086 2.086 0 0 0-.692-.432 2.43 2.43 0 0 0-.883-.155h-1.532v4.107h1.532c.32 0 .615-.053.883-.158.268-.106.498-.25.692-.434a1.9 1.9 0 0 0 .449-.655z"/></g><g><path fill="#4a4a4a" d="M60.428 1.564c.069.178.103.367.103.566 0 .2-.034.389-.103.567a1.427 1.427 0 0 1-.285.463 1.325 1.325 0 0 1-.997.426 1.343 1.343 0 0 1-1.006-.435 1.436 1.436 0 0 1-.288-.466 1.56 1.56 0 0 1-.103-.566c0-.2.035-.388.103-.567.069-.178.163-.332.285-.463a1.35 1.35 0 0 1 .998-.425 1.347 1.347 0 0 1 1.006.434c.123.133.219.288.287.466zm.701 1.376c.106-.258.159-.532.159-.821a2.15 2.15 0 0 0-.599-1.496 2.059 2.059 0 0 0-.675-.455A2.196 2.196 0 0 0 59.146 0c-.317 0-.607.056-.868.17a2.15 2.15 0 0 0-.681.46c-.192.194-.34.42-.446.678a2.147 2.147 0 0 0-.158.821 2.146 2.146 0 0 0 .598 1.497c.188.191.413.343.675.454.262.112.551.168.868.168a2.147 2.147 0 0 0 1.549-.63c.192-.195.34-.42.446-.679z"/></g><g><path fill="#4a4a4a" d="M66.127.908c.161.124.242.309.242.557 0 .223-.08.403-.239.539-.159.135-.376.203-.65.203h-.842V.722h.842c.27 0 .486.062.648.186zm.846 1.152c.086-.176.13-.38.13-.61 0-.211-.037-.401-.11-.57a1.231 1.231 0 0 0-.31-.434 1.38 1.38 0 0 0-.493-.278 2.041 2.041 0 0 0-.648-.097h-1.62v4.107h.716v-1.32h.818c.227 0 .44-.03.64-.091.2-.06.375-.15.524-.267.149-.117.267-.264.353-.44z"/></g><g><path fill="#4a4a4a" d="M71.198 2.13c0 .2-.034.389-.103.567a1.429 1.429 0 0 1-.285.463 1.324 1.324 0 0 1-.997.426 1.344 1.344 0 0 1-1.006-.435 1.436 1.436 0 0 1-.288-.466 1.558 1.558 0 0 1-.102-.566c0-.2.034-.388.102-.567.069-.178.164-.332.285-.463a1.35 1.35 0 0 1 .998-.425 1.347 1.347 0 0 1 1.006.434c.123.133.219.288.287.466.069.178.103.367.103.566zm.598.81c.106-.258.159-.532.159-.821a2.147 2.147 0 0 0-.599-1.496 2.06 2.06 0 0 0-.675-.455A2.196 2.196 0 0 0 69.813 0c-.317 0-.606.056-.868.17a2.15 2.15 0 0 0-.68.46c-.192.194-.341.42-.447.678a2.15 2.15 0 0 0-.158.821 2.148 2.148 0 0 0 .598 1.497c.188.191.413.343.675.454.262.112.552.168.868.168a2.147 2.147 0 0 0 1.549-.63c.192-.195.34-.42.446-.679z"/></g><g><path fill="#4a4a4a" d="M75.228.896c.149.116.224.288.224.516a.622.622 0 0 1-.23.506c-.153.126-.36.189-.618.189h-1.06V.722h1.054c.27 0 .48.058.63.174zm1.086 3.282l-1.109-1.555c.145-.039.277-.094.396-.167a1.188 1.188 0 0 0 .51-.622c.05-.135.074-.288.074-.46 0-.2-.035-.38-.106-.543-.07-.163-.17-.3-.302-.411a1.384 1.384 0 0 0-.48-.258 2.088 2.088 0 0 0-.638-.091h-1.83v4.107h.716V2.747h.906l1.012 1.431z"/></g></g></g></g></svg>