<svg xmlns="http://www.w3.org/2000/svg" width="21" height="13" viewBox="0 0 21 13"><g><g><path fill="#fff" d="M19.523 5.41H4.012l2.904-2.904a.882.882 0 1 0-1.247-1.248l-4.41 4.41a.882.882 0 0 0 0 1.248l4.41 4.41a.88.88 0 0 0 1.247 0 .882.882 0 0 0 0-1.247L4.012 7.174h15.51a.882.882 0 0 0 0-1.764z"/><path fill="none" stroke="#041e50" stroke-miterlimit="20" stroke-width=".5" d="M19.523 5.41v0H4.012v0l2.904-2.904a.882.882 0 1 0-1.247-1.248l-4.41 4.41a.882.882 0 0 0 0 1.248l4.41 4.41a.88.88 0 0 0 1.247 0 .882.882 0 0 0 0-1.247L4.012 7.174v0h15.51a.882.882 0 0 0 0-1.764z"/></g></g></svg>