<svg xmlns="http://www.w3.org/2000/svg" width="21" height="12" viewBox="0 0 21 12"><g><g><path fill="#fff" d="M15.736 1.079a.882.882 0 0 0-1.247 1.247l2.904 2.905H1.883a.882.882 0 0 0 0 1.764h15.51L14.49 9.899a.882.882 0 1 0 1.247 1.247l4.41-4.41a.882.882 0 0 0 0-1.247z"/><path fill="none" stroke="#041e50" stroke-miterlimit="20" stroke-width=".5" d="M15.736 1.079a.882.882 0 0 0-1.247 1.247l2.904 2.905v0H1.883a.882.882 0 0 0 0 1.764h15.51v0L14.49 9.899a.882.882 0 1 0 1.247 1.247l4.41-4.41a.882.882 0 0 0 0-1.247z"/></g></g></svg>