<svg xmlns="http://www.w3.org/2000/svg" width="18" height="8" viewBox="0 0 18 8"><g><g><path fill="#041e50" d="M-.088 1.8c.397.097.76.197 1.127.275 1.246.263 2.49.533 3.742.77.56.106 1.132.148 1.7.205.307.03.62.01.925.054.427.062.851.007 1.27-.02.545-.033 1.087-.138 1.624-.244 1.38-.274 2.678-.8 3.959-1.365.87-.384 1.717-.818 2.575-1.23.186-.088.374-.174.594-.276-.033.2-.057.366-.089.53-.15.751-.333 1.493-.59 2.216-.203.57-.551 1.051-.953 1.497-.94 1.042-2.115 1.718-3.41 2.215-1.457.559-2.963.934-4.496 1.2-.829.143-1.663.275-2.5.353-.691.065-1.39.05-2.087.054-.198 0-.397-.052-.594-.089-.145-.027-.237-.11-.298-.257-.5-1.19-1.01-2.375-1.516-3.562C.598 3.429.3 2.733.004 2.036c-.03-.068-.054-.138-.092-.236z"/></g></g></svg>