<svg xmlns="http://www.w3.org/2000/svg" width="21" height="28" viewBox="0 0 21 28"><g><g><path fill="#041e50" d="M9.559 7.01c.073.05.13.085.184.126a21.202 21.202 0 0 1 2.535 2.312c.62.655 1.166 1.361 1.614 2.144.331.578.604 1.183.833 1.808.224.61.453 1.216.68 1.825.026.07.049.143.082.242-.077 0-.13.006-.18-.001-.77-.116-1.54-.235-2.31-.35-.557-.084-1.114-.166-1.672-.244-.458-.064-.917-.129-1.376-.179-.215-.023-.434-.014-.65-.015-.295-.002-.59.004-.884-.002-.425-.008-.85-.024-1.275-.037-.03-.001-.059-.011-.112-.022l.037-.364c.162-1.639.613-3.197 1.305-4.689.355-.764.701-1.531 1.053-2.297.037-.082.084-.16.136-.258zm10.977 20.353c.01-.016.02-.029.022-.042.072-.764.04-1.53-.003-2.292a49.395 49.395 0 0 0-.18-2.241c-.12-1.176-.232-2.354-.393-3.525-.165-1.21-.377-2.412-.58-3.616a29.815 29.815 0 0 0-.974-3.96 62.222 62.222 0 0 0-1.5-4.188c-.15-.38-.298-.766-.494-1.123-.592-1.078-1.206-2.142-1.813-3.211-.11-.193-.223-.384-.343-.59l-.246.168c-1.033.724-2.065 1.45-3.099 2.172-.044.031-.102.041-.154.061l-.034-.039c.033-.065.061-.133.099-.196l2.236-3.718c.041-.068.08-.137.146-.252-.101.03-.15.033-.183.057-.38.292-.783.561-1.133.887a24.808 24.808 0 0 0-2.174 2.318 207.415 207.415 0 0 0-2.818 3.479 26.064 26.064 0 0 0-2.345 3.453c-.332.593-.64 1.2-.945 1.808-.228.456-.44.92-.643 1.388a5.048 5.048 0 0 0-.259.767c-.05.196-.16.273-.345.31-.349.068-.697.143-1.038.24-.505.142-1.005.304-1.505.464-.072.023-.176.027-.192.165a12.77 12.77 0 0 1 2.76-.186c-.026.108-.043.19-.066.271l-.182.648c-.288 1.054-.448 2.13-.568 3.215a34.744 34.744 0 0 0-.196 3.47 43.948 43.948 0 0 0 .098 2.943c.02.287.133.55.235.833.11-.053.2-.095.288-.14.641-.327 1.281-.656 1.923-.981 1.104-.56 2.208-1.12 3.315-1.675.15-.075.228-.177.235-.34.003-.083.01-.169.003-.253-.035-.439-.073-.878-.11-1.316-.05-.578-.106-1.155-.147-1.733-.035-.501-.049-1.003-.078-1.505-.034-.57-.077-1.14-.11-1.712a31.717 31.717 0 0 1-.043-1.158c-.003-.15-.037-.307.042-.457.053 0 .1-.006.144.001.312.052.624.11.937.16a17.24 17.24 0 0 1 5.01 1.627c.76.381 1.527.75 2.293 1.12.153.073.317.124.478.176.113.036.209.013.274-.106.07-.129.154-.25.236-.372.045-.067.098-.128.172-.224.055.125.095.207.128.291l.621 1.599c.53 1.36 1.053 2.724 1.59 4.082.182.459.33.932.59 1.36.283.47.542.954.817 1.43.046.08.07.197.201.188z"/></g></g></svg>