<svg xmlns="http://www.w3.org/2000/svg" width="8" height="25" viewBox="0 0 8 25"><g><g><path fill="#041e50" d="M.813 3.692L7.457.819c.042.17.096.316.109.465.04.454.07.909.093 1.364.017.347.033.696.022 1.043-.029.88-.072 1.76-.11 2.641L7.474 8.44c-.046 1.003.003 2.011-.14 3.01a70.53 70.53 0 0 1-.327 2.107 37.005 37.005 0 0 1-.926 3.997c-.394 1.351-.873 2.672-1.372 3.988-.414 1.09-.82 2.184-1.231 3.276-.013.035-.028.069-.053.128 0-.309-.006-.588.002-.868.007-.285.031-.57.04-.856.02-.564.042-1.128.049-1.692.02-1.703.033-3.405.046-5.107.002-.193-.012-.386-.022-.579-.027-.51-.041-1.02-.086-1.527-.05-.577-.127-1.152-.193-1.728-.11-.96-.267-1.914-.537-2.844a96.506 96.506 0 0 0-.748-2.414C1.612 6.191 1.24 5.052.87 3.913.85 3.848.836 3.78.813 3.692z"/></g></g></svg>