<svg xmlns="http://www.w3.org/2000/svg" width="22" height="27" viewBox="0 0 22 27"><g><g><path fill="#041e50" d="M16.863 24.82c.022-.3.04-.6.065-.9.03-.339.068-.676.102-1.015a.646.646 0 0 0-.094-.418 95.428 95.428 0 0 0-3.083-4.723 44.961 44.961 0 0 0-2.015-2.723c-.702-.87-1.48-1.665-2.291-2.43C8.15 11.296 6.61 10.165 5.043 9.07c-.279-.196-.563-.383-.846-.573-.063-.043-.13-.08-.225-.14-.013.09-.03.154-.03.218 0 .937-.006 1.873.002 2.81.005.642.02 1.283.047 1.925.03.711.147 1.413.275 2.113.202 1.104.513 2.181.832 3.255.43 1.452.882 2.898 1.312 4.35.129.437.22.884.32 1.329.046.209.036.216-.168.277-.874.261-1.749.52-2.623.78l-2.912.865c-.058.017-.117.031-.205.054-.042-.134-.088-.255-.118-.38A7.762 7.762 0 0 1 .492 24.3c-.017-1.05-.06-2.102-.089-3.153-.024-.873-.07-1.746-.062-2.62.01-.973.057-1.946.11-2.919a21.68 21.68 0 0 1 .61-4.005c.184-.742.428-1.468.648-2.2.199-.659.403-1.315.604-1.973.015-.05.022-.104.034-.163-.412-.352-.88-.638-1.216-1.101L5.153.75c.377.388.739.758 1.098 1.132.23.24.455.485.686.725.429.446.874.878 1.285 1.34.297.334.555.704.821 1.065.98 1.326 1.918 2.68 2.753 4.102.383.653.745 1.32 1.1 1.989.915 1.724 1.674 3.517 2.337 5.35.594 1.642 1.14 3.3 1.708 4.951.031.092.071.18.154.27.02-.042.05-.083.054-.127.08-.854.16-1.708.23-2.563.028-.339.041-.68.05-1.02.027-.965.069-1.931.067-2.898a16.8 16.8 0 0 0-.279-2.88 14.668 14.668 0 0 0-.787-2.83c-.32-.813-.648-1.622-.987-2.427-.281-.67-.59-1.327-.874-1.996-.263-.618-.51-1.244-.764-1.867l-.291-.718L20.218.743c.025.062.055.115.07.171l.717 2.832a.952.952 0 0 1 .033.204c.018.665.026 1.33.05 1.995.021.61.068 1.22.085 1.83.026.904.075 1.81.044 2.713-.073 2.142-.474 4.235-1.035 6.3-.326 1.2-.667 2.397-1.096 3.565a74.4 74.4 0 0 1-1.094 2.782c-.105.254-.284.478-.434.713-.21.33-.426.659-.64.988z"/></g></g></svg>