<svg xmlns="http://www.w3.org/2000/svg" width="12" height="25" viewBox="0 0 12 25"><g><g><path fill="#041e50" d="M2.79 24.77c.27-.25.547-.497.813-.754.453-.437.823-.943 1.181-1.457.835-1.196 1.559-2.455 2.097-3.812.46-1.16.701-2.367.743-3.616.015-.46-.055-.908-.094-1.36-.046-.524-.092-1.048-.164-1.568-.089-.64-.304-1.244-.574-1.83-.59-1.283-1.419-2.41-2.328-3.48A30.227 30.227 0 0 0 2.916 5.23C2.328 4.636 1.71 4.07 1.112 3.49c-.172-.167-.329-.348-.5-.53.089-.103.171-.204.262-.298.661-.694 1.325-1.387 1.988-2.08.155-.163.314-.322.462-.49.087-.097.19-.14.31-.114.157.034.324.06.464.134.458.24.913.489 1.357.756a11.396 11.396 0 0 1 2.198 1.737c.876.88 1.625 1.864 2.296 2.908.862 1.338 1.41 2.797 1.702 4.356.2 1.077.264 2.165.222 3.256-.062 1.588-.363 3.127-.995 4.595-.403.938-.944 1.79-1.573 2.59-.474.603-.976 1.18-1.526 1.714A14.174 14.174 0 0 1 5 24.143c-.067.039-.135.08-.208.101-.66.19-1.32.376-1.98.562l-.022-.036z"/></g></g></svg>