<svg xmlns="http://www.w3.org/2000/svg" width="14" height="26" viewBox="0 0 14 26"><g><g><path fill="#041e50" d="M13.9 21.462c-.12.137-.226.258-.334.376-.948 1.04-1.898 2.079-2.844 3.12a.67.67 0 0 1-.437.23c-.827.101-1.636-.015-2.437-.196a7.72 7.72 0 0 1-3.534-1.862 10.536 10.536 0 0 1-2.166-2.794C1.302 18.776.84 17.105.707 15.34c-.035-.462-.07-.926-.065-1.389.013-1.606.273-3.17.87-4.669.471-1.18 1.137-2.244 1.923-3.24a24.467 24.467 0 0 1 2.362-2.585 18.973 18.973 0 0 1 2.574-2.052c.18-.12.385-.197.581-.29a33.433 33.433 0 0 1 1.69-.77c-.188.165-.37.335-.562.494-1.027.848-1.874 1.862-2.686 2.907-.685.88-1.33 1.789-1.894 2.751-.503.858-.907 1.758-1.109 2.738a7.461 7.461 0 0 0-.127 2.03c.031.447.04.897.096 1.34a8.809 8.809 0 0 0 2.178 4.831A11.938 11.938 0 0 0 9.696 20c.74.41 1.52.722 2.342.932.561.143 1.117.306 1.675.461.057.016.111.041.187.07z"/></g></g></svg>