<svg xmlns="http://www.w3.org/2000/svg" width="19" height="20" viewBox="0 0 19 20"><g><g><path fill="#041e50" d="M1.411 6.663l-.95-.367c.34.023.656.04.972.068.178.016.281-.061.378-.204.309-.454.605-.92.957-1.341.29-.347.637-.652.984-.947.542-.461 1.096-.91 1.713-1.272a13.695 13.695 0 0 1 3.77-1.526c.834-.198 1.677-.35 2.532-.43.703-.067 1.406-.1 2.11-.074 1.315.05 2.618.198 3.868.642.153.054.301.125.44.207.188.109.199.157.108.357-.275.605-.55 1.21-.828 1.814L16.445 5.8c-.012.028-.026.055-.052.106-.27-.046-.544-.08-.812-.14-.935-.21-1.869-.428-2.802-.645-.784-.183-1.57-.354-2.371-.43a10.137 10.137 0 0 0-1.691-.029c-1.846.132-3.5.802-5.064 1.739-.056.034-.107.078-.207.151.16.037.266.07.375.086 1.424.21 2.824.536 4.201.943 1.417.419 2.763 1.011 3.957 1.895.49.363.958.762 1.402 1.18.83.78 1.611 1.608 2.332 2.49.205.25.373.531.548.804.553.858 1.102 1.719 1.653 2.579.012.02.021.041.031.062-.11.117-5.095 2.987-5.473 3.148-.024-.062-.05-.123-.07-.186a14.994 14.994 0 0 1-.56-2.27 23.037 23.037 0 0 0-.768-3.295c-.3-.958-.75-1.823-1.451-2.557-.62-.648-1.312-1.2-2.053-1.698A22.842 22.842 0 0 0 4.71 8.1c-.62-.298-1.251-.572-1.874-.863-.146-.069-.255-.053-.38.047-.425.34-.837.692-1.2 1.095-.185.206-.333.446-.498.67-.045.061-.091.12-.16.211a1.287 1.287 0 0 1-.003-.636c.155-.61.367-1.197.724-1.723.034-.05.063-.106.091-.16.007-.013.001-.03.001-.077z"/></g></g></svg>