<svg xmlns="http://www.w3.org/2000/svg" width="16" height="25" viewBox="0 0 16 25"><g><g><path fill="#041e50" d="M12.777 24.218c-.28.054-.583.11-.885.172-.852.174-1.712.248-2.582.232-.395-.007-.792.014-1.186-.004-.942-.044-1.882-.112-2.804-.335-1.057-.256-2.027-.706-2.944-1.282-.125-.078-.247-.16-.373-.236a4.853 4.853 0 0 1-1.07-.847c-.21-.227-.444-.431-.667-.647-.054-.053-.105-.11-.18-.19L4.958 17.4c.225.197.46.576.518.836.169.755.361 1.503.645 2.225.081.208.175.413.282.609.332.606.872.993 1.445 1.342.639.389 1.33.656 2.04.878l2.52.791c.08.025.163.037.264.06.008-.067.019-.117.019-.168 0-.619.015-1.239-.003-1.857a94.704 94.704 0 0 0-.115-2.757c-.044-.778-.122-1.555-.176-2.334-.022-.316-.017-.633-.03-.95-.04-.97-.21-1.919-.442-2.86a37.338 37.338 0 0 0-1.41-4.437 11.075 11.075 0 0 0-.42-.954A282.164 282.164 0 0 0 8.459 4.57c-.314-.612-.652-1.212-.977-1.819-.018-.032-.026-.07-.046-.127l6.306-2.647c.027.072.053.134.072.197.377 1.25.765 2.497 1.12 3.753.143.504.226 1.027.312 1.545.142.87.28 1.74.39 2.613.09.713.145 1.43.196 2.146.034.463.04.927.048 1.39.02 1.196-.118 2.377-.321 3.552-.31 1.794-.812 3.539-1.354 5.273-.312.996-.634 1.988-1.046 2.948-.115.27-.245.533-.38.824z"/></g></g></svg>