<svg xmlns="http://www.w3.org/2000/svg" width="21" height="27" viewBox="0 0 21 27"><g><g><path fill="#041e50" d="M13.18 1.929l6.721-1.61c.094.359.18.686.263 1.014.16.622.32 1.243.472 1.866.04.163.06.334.067.503.035.934.062 1.87.093 2.804l.072 2.133c.01.27.023.541.021.812a23.106 23.106 0 0 1-.285 3.393c-.273 1.777-.73 3.509-1.248 5.227-.45 1.496-.958 2.972-1.593 4.4-.1.225-.221.443-.349.653-.21.343-.433.678-.652 1.016a.85.85 0 0 1-.214.24c-.002-.087-.012-.174-.005-.259.042-.493.078-.986.14-1.476a.98.98 0 0 0-.144-.678c-1.36-2.209-2.79-4.37-4.338-6.452A24.203 24.203 0 0 0 9.5 12.458a30.634 30.634 0 0 0-3.23-2.683c-.79-.572-1.593-1.126-2.39-1.687-.069-.048-.142-.09-.247-.156-.01.096-.023.159-.023.222-.001 1.053-.011 2.106.003 3.159.01.71.03 1.423.09 2.13.085 1.035.279 2.054.566 3.051.471 1.634.964 3.262 1.444 4.893.223.756.437 1.514.655 2.271.013.044.021.09.037.16L.787 27c-.023-.055-.04-.088-.05-.123C.545 26.17.31 25.471.217 24.74a10.322 10.322 0 0 1-.074-.97c-.023-.696-.03-1.392-.05-2.088-.02-.726-.05-1.452-.068-2.179-.014-.619-.032-1.238-.02-1.856.013-.71.058-1.421.085-2.132a21.53 21.53 0 0 1 .479-3.627c.161-.762.391-1.511.609-2.26.249-.853.519-1.7.78-2.55.02-.066.035-.133.06-.225-.084-.067-.176-.135-.262-.21-.263-.226-.53-.45-.786-.685C.78 5.784.786 5.75.935 5.55L3.03 2.74C3.58 2 4.127 1.26 4.677.522c.041-.055.085-.109.14-.178.116.113.229.217.335.328.252.263.498.53.75.793.666.69 1.343 1.372 1.997 2.074.257.276.475.591.694.9.635.897 1.274 1.79 1.888 2.701a34.655 34.655 0 0 1 1.949 3.293c1.08 2.057 1.971 4.194 2.744 6.383.408 1.15.802 2.306 1.2 3.46.093.27.176.544.266.816.02.063.049.123.074.184l.049.002c.017-.06.044-.119.05-.18.081-.916.17-1.832.235-2.749.044-.624.05-1.25.072-1.877.018-.51.043-1.02.045-1.53a18.158 18.158 0 0 0-.278-3.16 14.971 14.971 0 0 0-1.094-3.557c-.21-.473-.379-.963-.578-1.441-.296-.706-.605-1.405-.902-2.11-.31-.734-.613-1.47-.917-2.205-.07-.17-.137-.342-.215-.54z"/></g></g></svg>