<svg xmlns="http://www.w3.org/2000/svg" width="27" height="26" viewBox="0 0 27 26"><g><g><path fill="#041e50" d="M27.058 17.69c-.019.072-.053.144-.053.217-.01 1.505-.214 2.99-.519 4.46-.067.33-.208.646-.32.966-.174.504-.352 1.007-.53 1.51-.015.042-.038.082-.072.153-1.627-.664-3.242-1.339-4.883-2.016.086-.234.164-.449.246-.662.553-1.451 1.124-2.896 1.656-4.355.398-1.09.697-2.212.844-3.367.077-.609.07-1.218.025-1.83-.108-1.464-.457-2.88-.842-4.291-.11-.403-.227-.803-.343-1.204-.021-.073-.053-.143-.088-.236-.066.022-.126.032-.175.06-1.265.718-2.539 1.421-3.79 2.163-.725.43-1.375.974-2.013 1.527-.41.354-.824.701-1.25 1.063.15.319.298.63.442.945.675 1.47 1.277 2.967 1.705 4.53.085.312.14.633.194.953.031.187.012.37-.157.504-.048.037-.08.093-.124.137-.57.58-1.143 1.156-1.713 1.736-.745.756-1.487 1.514-2.23 2.272l-.81.831c-.054.054-.112.103-.165.153-.18-.073-.268-.195-.281-.375-.031-.392-.09-.785-.093-1.178-.016-2.22-.018-4.442-.027-6.663 0-.098-.01-.196-.016-.297-.142-.007-.174.101-.227.164-.436.512-.86 1.034-1.296 1.546-.153.179-.327.34-.52.539a6.32 6.32 0 0 1 .53-1.985c.401-.888.79-1.78 1.189-2.67.105-.236.075-.475.01-.703-.12-.423-.272-.837-.411-1.255-.045-.132-.097-.26-.138-.394-.324-1.052-.872-1.994-1.432-2.93C8.135 5.626 6.722 3.66 5.213 1.764l-.518-.651c-.036.087-.067.136-.075.188-.078.511-.16 1.023-.226 1.536a51.377 51.377 0 0 0-.197 1.751c-.042.446-.055.895-.086 1.342-.04.593-.087 1.187-.126 1.78-.031.47-.069.94-.08 1.412a25.728 25.728 0 0 0 0 1.692c.064 1.554.168 3.105.59 4.611.206.736.468 1.456.7 2.185.4 1.261.883 2.492 1.374 3.72.287.716.537 1.447.815 2.202-.611.307-1.238.564-1.852.847-.61.282-1.226.553-1.84.829l-1.882.852c-.064-.155-.125-.293-.177-.435-.32-.87-.63-1.745-.96-2.611-.12-.317-.156-.646-.206-.972-.112-.749-.215-1.5-.297-2.252a34.49 34.49 0 0 1-.152-1.918 27.758 27.758 0 0 1-.045-1.808c.01-.882.101-1.759.228-2.632.262-1.796.754-3.534 1.296-5.261.424-1.35.891-2.684 1.424-3.995.374-.918.798-1.81 1.29-2.67.15-.261.284-.531.444-.802-.042.195.047.268.214.337.625.258 1.2.613 1.746 1.007a51.064 51.064 0 0 1 2.259 1.708c1.218.988 2.286 2.127 3.248 3.366.45.58.89 1.169 1.266 1.802.016.025.04.044.079.085.052-.069.1-.126.142-.188A23.006 23.006 0 0 1 15.832 6a17.869 17.869 0 0 1 1.701-1.578c.919-.758 1.86-1.49 2.816-2.201.502-.373 1.054-.679 1.584-1.012.584-.367 1.168-.73 1.753-1.095.058-.036.12-.067.203-.113.063.312.124.605.182.9.275 1.395.544 2.791.828 4.185.047.229.01.392-.192.509-.294.17-.588.34-.885.507-.214.12-.432.236-.661.362.036.069.059.125.092.173.734 1.075 1.369 2.208 1.984 3.353.472.88.901 1.779 1.214 2.729.338 1.026.542 2.077.554 3.162 0 .061.034.123.053.184z"/></g></g></svg>