<svg xmlns="http://www.w3.org/2000/svg" width="19" height="23" viewBox="0 0 19 23"><g><g><path fill="#fff" d="M17.333 19.189a2.036 2.036 0 0 1-2.033 2.033H3.81a2.036 2.036 0 0 1-2.033-2.033v-7.6c0-1.121.912-2.033 2.033-2.033H15.3c1.121 0 2.033.912 2.033 2.033zM4.111 6.639c0-2.68 2.442-4.861 5.445-4.861 3.002 0 5.444 2.18 5.444 4.86v2.14H4.111zm11.667 2.183V6.639C15.778 3.529 12.986 1 9.556 1 6.125 1 3.333 3.53 3.333 6.639v2.183A2.814 2.814 0 0 0 1 11.589v7.6C1 20.74 2.261 22 3.811 22H15.3a2.815 2.815 0 0 0 2.811-2.811v-7.6c0-1.387-1.01-2.54-2.333-2.767z"/><path fill="none" stroke="#fff" stroke-miterlimit="20" stroke-width=".5" d="M17.333 19.189a2.036 2.036 0 0 1-2.033 2.033H3.81a2.036 2.036 0 0 1-2.033-2.033v-7.6c0-1.121.912-2.033 2.033-2.033H15.3c1.121 0 2.033.912 2.033 2.033zM4.111 6.639c0-2.68 2.442-4.861 5.445-4.861 3.002 0 5.444 2.18 5.444 4.86v2.14H4.111zm11.667 2.183V6.639C15.778 3.529 12.986 1 9.556 1 6.125 1 3.333 3.53 3.333 6.639v2.183A2.814 2.814 0 0 0 1 11.589v7.6C1 20.74 2.261 22 3.811 22H15.3a2.815 2.815 0 0 0 2.811-2.811v-7.6c0-1.387-1.01-2.54-2.333-2.767z"/></g></g></svg>