<svg xmlns="http://www.w3.org/2000/svg" width="5" height="7" viewBox="0 0 5 7"><g><g><path fill="#fff" d="M3.333 4.778a.779.779 0 0 1-1.555 0V2.444a.779.779 0 0 1 1.555 0zM2.556.888C1.698.889 1 1.588 1 2.445v2.334c0 .858.698 1.555 1.556 1.555.857 0 1.555-.697 1.555-1.555V2.444c0-.857-.698-1.555-1.555-1.555z"/><path fill="none" stroke="#fff" stroke-miterlimit="20" stroke-width=".5" d="M3.333 4.778a.779.779 0 0 1-1.555 0V2.444a.779.779 0 0 1 1.555 0zM2.556.888C1.698.889 1 1.588 1 2.445v2.334c0 .858.698 1.555 1.556 1.555.857 0 1.555-.697 1.555-1.555V2.444c0-.857-.698-1.555-1.555-1.555z"/></g></g></svg>