<svg xmlns="http://www.w3.org/2000/svg" width="22" height="22" viewBox="0 0 22 22"><g><g><path fill="#041e50" d="M17.897 17.137a9.228 9.228 0 0 1-6.569 2.72 9.314 9.314 0 0 1-4.36-1.085.984.984 0 0 0-.786-.061l-4.61 1.613 1.613-4.61a.985.985 0 0 0-.06-.785 9.313 9.313 0 0 1-1.087-4.361c0-2.481.967-4.814 2.721-6.569a9.23 9.23 0 0 1 6.568-2.721h.001c2.482 0 4.814.966 6.569 2.721a9.228 9.228 0 0 1 2.721 6.569 9.229 9.229 0 0 1-2.721 6.569zm.904-14.042A10.498 10.498 0 0 0 11.328 0C9.93 0 8.57.27 7.282.804a10.514 10.514 0 0 0-3.427 2.291A10.498 10.498 0 0 0 .76 10.568a10.6 10.6 0 0 0 1.176 4.847L.16 20.489a.971.971 0 0 0 .232 1.015.97.97 0 0 0 1.015.232L6.48 19.96a10.6 10.6 0 0 0 4.847 1.176c2.823 0 5.477-1.1 7.473-3.095a10.499 10.499 0 0 0 3.095-7.473c0-2.823-1.1-5.477-3.095-7.473z"/></g></g></svg>