<svg xmlns="http://www.w3.org/2000/svg" width="12" height="13" viewBox="0 0 12 13"><g><g><path fill="#041e50" d="M9.638 10.95c-.187.188-.763.254-1.77-.178-1.064-.456-2.252-1.308-3.344-2.4-1.092-1.092-1.944-2.28-2.4-3.343-.432-1.008-.366-1.584-.179-1.771L3.07 2.133l1.388 1.39-.665.665a.975.975 0 0 0-.18 1.136 9.017 9.017 0 0 0 3.96 3.96.975.975 0 0 0 1.135-.18l.666-.666 1.389 1.389zm.618-3.438a1.248 1.248 0 0 0-1.764 0l-.531.532a7.74 7.74 0 0 1-3.109-3.109l.532-.531a1.248 1.248 0 0 0 0-1.764L3.951 1.208a1.248 1.248 0 0 0-1.763 0L1.042 2.354C.385 3.01.352 4.139.949 5.532c.519 1.21 1.467 2.54 2.672 3.743 1.204 1.205 2.533 2.153 3.743 2.672.662.283 1.264.425 1.784.425.575 0 1.05-.173 1.394-.518l1.146-1.146c.236-.235.366-.548.366-.881 0-.334-.13-.647-.366-.882z"/></g></g></svg>