<svg xmlns="http://www.w3.org/2000/svg" width="21" height="21" viewBox="0 0 21 21"><g><g><path fill="#041e50" d="M2.016 8.835A6.89 6.89 0 0 1 8.9 1.952a6.89 6.89 0 0 1 6.883 6.883c0 3.794-3.085 6.887-6.883 6.887-3.793 0-6.883-3.09-6.883-6.887zM19.51 18.65l-4.564-4.564a7.975 7.975 0 0 0 1.966-5.25c0-4.419-3.594-8.008-8.008-8.008C4.485.828.896 4.42.896 8.835s3.594 8.007 8.007 8.007a7.975 7.975 0 0 0 5.251-1.965l4.564 4.564a.566.566 0 0 0 .395.166.563.563 0 0 0 .396-.958z"/><path fill="none" stroke="#041e50" stroke-miterlimit="20" stroke-width=".8" d="M2.016 8.835A6.89 6.89 0 0 1 8.9 1.952a6.89 6.89 0 0 1 6.883 6.883c0 3.794-3.085 6.887-6.883 6.887-3.793 0-6.883-3.09-6.883-6.887zM19.51 18.65l-4.564-4.564a7.975 7.975 0 0 0 1.966-5.25c0-4.419-3.594-8.008-8.008-8.008C4.485.828.896 4.42.896 8.835s3.594 8.007 8.007 8.007a7.975 7.975 0 0 0 5.251-1.965l4.564 4.564a.566.566 0 0 0 .395.166.563.563 0 0 0 .396-.958z"/></g></g></svg>