<svg xmlns="http://www.w3.org/2000/svg" width="15" height="13" viewBox="0 0 15 13"><g><g><path fill="#fff" d="M4.681 13.036c5.693 0 8.79-4.688 8.79-8.79v-.419c.586-.418 1.089-1.004 1.507-1.59a6.95 6.95 0 0 1-1.758.502c.67-.418 1.088-1.004 1.34-1.674a7.678 7.678 0 0 1-1.926.753 2.99 2.99 0 0 0-2.26-1.004c-1.675 0-3.098 1.423-3.098 3.097 0 .251 0 .502.084.67C4.765 4.413 2.504 3.24.997 1.316.747 1.735.58 2.321.58 2.906c0 1.089.586 2.01 1.34 2.596-.503 0-1.005-.168-1.424-.419a3.06 3.06 0 0 0 2.512 3.014c-.251.084-.503.084-.837.084-.168 0-.42 0-.587-.084.42 1.256 1.507 2.093 2.93 2.177-1.088.837-2.427 1.34-3.85 1.34-.252 0-.503 0-.754-.085 1.34 1.005 3.014 1.507 4.772 1.507"/></g></g></svg>