<svg xmlns="http://www.w3.org/2000/svg" width="16" height="15" viewBox="0 0 16 15"><g><g><path fill="#fff" d="M11.673 2.526a.93.93 0 0 1 .921.92.93.93 0 0 1-.92.922.93.93 0 0 1-.922-.921.93.93 0 0 1 .921-.921m-4.018 7.45c1.423 0 2.511-1.088 2.511-2.51 0-1.424-1.088-2.512-2.511-2.512-1.424 0-2.512 1.088-2.512 2.511s1.088 2.512 2.512 2.512m0-6.363a3.84 3.84 0 0 1 3.85 3.851 3.84 3.84 0 0 1-3.85 3.851 3.84 3.84 0 0 1-3.851-3.85c0-2.177 1.674-3.852 3.85-3.852m0-3.683c2.01 0 2.345 0 3.098.083.837 0 1.34.168 1.842.335.502.168.92.419 1.34.837.418.419.67.838.837 1.34.167.502.334 1.004.334 1.842.084.753.084 1.088.084 3.097 0 2.01-.084 2.26-.084 3.098 0 .837-.167 1.34-.334 1.841-.168.503-.419.921-.838 1.34-.418.419-.837.67-1.339.837-.502.168-1.005.335-1.842.335C10 15 9.664 15 7.655 15c-2.01 0-2.344 0-3.098-.084-.837 0-1.34-.167-1.842-.335a3.277 3.277 0 0 1-1.34-.837 3.277 3.277 0 0 1-.836-1.34C.37 11.902.204 11.4.204 10.563.12 9.809.12 9.474.12 7.465s0-2.344.084-3.097c0-.838.084-1.34.335-1.842.167-.502.418-.921.837-1.34.418-.418.837-.67 1.34-.837C3.217.182 3.72.014 4.556.014c.754-.083 1.088-.083 3.098-.083m0 1.34c-2.01 0-2.26 0-3.014.083-.754 0-1.172.167-1.423.251-.335.084-.586.251-.838.586a3.007 3.007 0 0 0-.586.837c-.083.251-.25.67-.25 1.423-.084.754-.084 1.005-.084 3.014 0 2.01.083 2.26.083 3.014 0 .753.168 1.172.251 1.423.168.335.335.586.586.837.252.252.503.419.838.586.25.084.67.252 1.423.252.753.083 1.004.083 3.014.083 2.009 0 2.26-.083 3.013-.083.754 0 1.173-.168 1.424-.252.335-.167.586-.334.837-.586.251-.25.418-.502.586-.837.084-.251.251-.67.251-1.423.084-.753.084-1.005.084-3.014s-.084-2.26-.084-3.014c0-.753-.167-1.172-.251-1.423a3.007 3.007 0 0 0-.586-.837 3.007 3.007 0 0 0-.837-.586c-.252-.084-.67-.251-1.424-.251-.753-.084-1.004-.084-3.013-.084"/></g></g></svg>