<svg xmlns="http://www.w3.org/2000/svg" width="10" height="10" viewBox="0 0 10 10"><g><g><path fill="#fff" d="M4.918 7.192A2.271 2.271 0 0 1 2.65 4.924a2.271 2.271 0 0 1 2.268-2.269 2.271 2.271 0 0 1 2.268 2.269 2.271 2.271 0 0 1-2.268 2.268zm0-6.186A3.923 3.923 0 0 0 1 4.924a3.923 3.923 0 0 0 3.918 3.918 3.923 3.923 0 0 0 3.918-3.918 3.923 3.923 0 0 0-3.918-3.918z"/><path fill="none" stroke="#041e50" stroke-miterlimit="20" stroke-width=".3" d="M4.918 7.192A2.271 2.271 0 0 1 2.65 4.924a2.271 2.271 0 0 1 2.268-2.269 2.271 2.271 0 0 1 2.268 2.269 2.271 2.271 0 0 1-2.268 2.268zm0-6.186A3.923 3.923 0 0 0 1 4.924a3.923 3.923 0 0 0 3.918 3.918 3.923 3.923 0 0 0 3.918-3.918 3.923 3.923 0 0 0-3.918-3.918z"/></g></g></svg>